<svg width="16" height="16" xmlns="http://www.w3.org/2000/svg" fill="none">
 <g>
  <title>Layer 1</title>
  <path d="m7.90002,3.0948c-1.20021,-5.61588 -10.49121,-1.19091 -6.13965,4.50695c4.35156,5.69785 6.63965,7.88905 6.63965,7.88905" stroke="#ff7f00" id="svg_1"/>
  <path d="m7.89415,3.0948c1.2002,-5.61588 10.83625,-1.19091 6.48475,4.50695c-4.3516,5.69785 -6.67889,7.89825 -6.67889,7.89825" stroke="#ff7f00" id="svg_2"/>
  <path transform="rotate(-90.5876 7.89764 2.97415)" stroke="#ff7f00" d="m7.39099,2.70752l1.01331,0.00005l-0.02093,0.53322l-0.99238,0l0,-0.53327z" fill="#333333" id="svg_3"/>
  <path d="m4.01476,1.61624c0,0 -0.06894,0.01065 -0.2214,0.0738c-0.21561,0.08931 -0.2952,0.2214 -0.2952,0.66421c0,0.51661 -0.05087,0.89153 0,1.10701c0.03791,0.16061 0.00941,0.48256 0.2214,0.95941c0.23415,0.5267 0.52488,0.65818 0.73801,0.95941c0.15369,0.21722 0.2423,0.42452 0.369,0.59041c0.36116,0.47285 0.47318,0.76782 0.73801,1.10701c0.12846,0.16453 0.16164,0.21266 0.2952,0.4428c0.08283,0.14273 0.1476,0.2952 0.1476,0.4428c0,0.0738 -0.0738,0.1476 -0.2214,0.1476c-0.2214,0 -0.29616,0.01182 -0.369,0c-0.23036,-0.03738 -0.2987,-0.06533 -0.66421,-0.2214c-0.8201,-0.35019 -1.62362,-0.88561 -2.06642,-1.18081c-0.2214,-0.1476 -0.11374,-0.34638 -0.0738,-0.4428c0.11297,-0.27273 0.0738,-0.66421 0.0738,-0.95941c0,-0.2214 0.0062,-0.43986 0.0738,-0.59041c0.16281,-0.36255 0.2214,-0.48604 0.2214,-0.59041c0,-0.10437 -0.2952,-0.1476 -0.4428,-0.1476c-0.0738,0 -0.10766,-0.02262 -0.1476,0.0738c-0.05648,0.13637 0.10437,0.26463 0,0.369c-0.05219,0.05219 -0.1476,0.0738 -0.2214,0.1476c-0.0738,0.0738 -0.1476,0.0738 -0.2214,0.1476c-0.0738,0.0738 -0.1476,0.0738 -0.2214,0c0,0 -0.04556,-0.07942 -0.0738,-0.1476c-0.03994,-0.09643 -0.0738,-0.0738 -0.0738,-0.1476c0,-0.0738 0,-0.1476 0,-0.1476c0,-0.0738 0.03386,-0.19878 0.0738,-0.2952c0.02824,-0.06818 0,-0.1476 0,-0.2952c0,-0.0738 0.0738,-0.2214 0.0738,-0.369c0,0 -0.10204,-0.07942 -0.0738,-0.1476c0.03994,-0.09643 0.1476,-0.2214 0.2214,-0.2214c0.0738,0 0.09542,-0.02162 0.1476,-0.0738c0.05219,-0.05219 0,-0.2214 0,-0.2952c0,-0.2214 -0.02824,-0.30082 0,-0.369c0.07988,-0.19285 0.13673,-0.23418 0.2214,-0.2952c0.13387,-0.09649 0.2214,-0.0738 0.2214,-0.0738c0.0738,-0.0738 0.1476,-0.1476 0.0738,-0.1476c0,0 -0.0738,0.0738 -0.0738,0.2952c0,0.369 0.03834,0.66707 0.0738,0.88561c0.03738,0.23036 0.0738,0.2952 0.0738,0.369c0,0.0738 -0.03386,0.12498 -0.0738,0.2214c-0.02824,0.06818 -0.0738,0.1476 -0.1476,0.369c-0.0738,0.2214 -0.20863,0.37987 -0.1476,0.2952c0.09649,-0.13387 0.2545,-0.72366 0.369,-1.03321c0.10557,-0.28539 0.0738,-0.4428 0.0738,-0.51661c0,-0.0738 -0.02824,-0.22702 0,-0.2952c0.03994,-0.09643 0.1476,-0.0738 0.1476,-0.0738c0.0738,0 0.1023,-0.05188 -0.0738,0.1476c-0.10921,0.12371 -0.24695,0.34727 -0.369,0.51661c-0.09649,0.13387 -0.2214,0.2952 -0.2952,0.369c-0.0738,0.0738 -0.2952,0.2952 -0.369,0.369c-0.0738,0.0738 -0.1476,0.1476 -0.1476,0.1476c0,0.0738 -0.05111,0.16133 -0.1476,0.2952c-0.06103,0.08467 -0.0738,0.1476 -0.0738,0.2952c0,0.0738 0,0.1476 0,0.2952c0,0.0738 0,0.1476 0,0.2214c0,0.0738 -0.02791,0.15026 0,0.2952c0.07516,0.39026 0.25526,0.42018 0.2952,0.51661c0.02824,0.06818 0.18349,0.20839 0.2214,0.369c0.01696,0.07183 0.0738,0.1476 0.0738,0.1476c0,0.2214 0.28912,0.39756 0.369,0.59041c0.02824,0.06818 0,0.1476 0.0738,0.2214c0.0738,0.0738 0.1476,0.1476 0.2214,0.2214c0.0738,0.0738 0.1476,0.2952 0.2214,0.369c0.0738,0.0738 0.0738,0.2214 0.1476,0.2952c0.0738,0.0738 0.16133,0.19871 0.2952,0.2952c0.08467,0.06103 0.1476,0.0738 0.2214,0.1476c0.0738,0.0738 0.27251,0.23513 0.369,0.369c0.06103,0.08467 0.23418,0.21053 0.2952,0.2952c0.09649,0.13387 0.2214,0.2952 0.2952,0.4428c0.0738,0.1476 0.1476,0.2952 0.2214,0.369c0.1476,0.1476 0.2214,0.2952 0.2952,0.369c0.0738,0.0738 0.12599,0.16922 0.0738,0.2214c-0.05219,0.05219 -0.1476,-0.1476 -0.4428,-0.4428c-0.0738,-0.0738 -0.14152,-0.10235 -0.2214,-0.2952c-0.02824,-0.06818 0.03177,-0.15742 -0.0738,-0.4428c-0.05725,-0.15477 -0.06198,-0.44376 -0.0738,-0.51661c-0.03738,-0.23036 -0.14958,-0.27825 -0.2214,-0.2952c-0.16061,-0.03792 -0.2952,-0.0738 -0.369,-0.0738c-0.1476,0 -0.3616,-0.03031 -0.369,0.0738c-0.02616,0.36807 0.53223,0.42171 0.73801,0.59041c0.08071,0.06617 0.25526,0.19878 0.2952,0.2952c0.02824,0.06818 0.0738,0.0738 0,0.0738c-0.2214,0 -0.39188,0.04889 -0.59041,-0.0738c-0.17757,-0.10974 -0.17053,-0.30113 -0.2214,-0.51661c-0.03791,-0.16061 -0.1476,-0.4428 -0.2952,-0.59041c-0.1476,-0.1476 -0.21809,-0.18813 -0.2952,-0.4428c-0.04277,-0.14127 -0.05111,-0.38273 -0.1476,-0.5166c-0.06103,-0.08467 -0.19776,-0.22331 -0.2214,-0.369c-0.03738,-0.23037 -0.13857,-0.37387 -0.2214,-0.51661c-0.13356,-0.23015 -0.18349,-0.356 -0.2214,-0.5166c-0.01696,-0.07183 0,-0.2214 0,-0.2952c0,-0.1476 0,-0.369 0,-0.4428c0,-0.0738 -0.02262,-0.33514 0.0738,-0.2952c0.06818,0.02824 0.0738,0.2214 0.1476,0.369c0.2214,0.4428 0.33595,0.90459 0.51661,1.18081c0.31549,0.48239 0.4428,0.51661 0.59041,0.66421c0.0738,0.0738 0.11703,0.2214 0.2214,0.2214c0.10437,0 -0.06253,-0.22445 -0.1476,-0.51661c-0.06525,-0.22407 -0.1476,-0.51661 -0.1476,-0.73801c0,-0.1476 0,-0.4428 0,-0.81181c0,-0.2952 0,-0.4428 0,-0.5166c0,-0.1476 -0.11245,0.17672 0.0738,0.66421c0.28491,0.7457 0.84376,1.24003 1.03321,1.69742c0.08931,0.21561 0,0.369 0.0738,0.369c0.0738,0 -0.15444,-0.21487 -0.2952,-0.369c-0.38869,-0.42563 -0.46574,-0.81773 -0.51661,-1.03321c-0.03791,-0.16061 -0.0738,-0.2214 0,-0.0738c0.0738,0.1476 0.5166,0.66421 0.81181,0.95941c0.2214,0.2214 0.46173,0.42782 0.51661,0.5166c0.12269,0.19852 0.2214,0.369 0.2952,0.4428c0.2214,0.2214 0.30212,0.30283 0.2214,0.369c-0.20578,0.1687 -0.29825,0.13633 -0.59041,0.2214c-0.22407,0.06525 -0.369,0.0738 -0.4428,0.1476c-0.0738,0.0738 -0.0738,0.0738 -0.0738,0.1476c0,0.0738 0,0.2214 0.0738,0.2952c0.0738,0.0738 0.03989,0.15155 0.0738,0.2952c0.03791,0.16061 0.1476,0.2214 0.369,0.4428c0.0738,0.0738 0.20844,0.08102 0.2952,0.2214c0.0388,0.06278 0,0.0738 0,0.1476c0,0.0738 0,0.2952 0,0.4428c0,0.2952 0,0.369 0,0.51661c0,0.0738 0,0.1476 0,0.2214c0,0.1476 -0.02262,0.25526 0.0738,0.2952c0.06818,0.02824 0.07697,0.05241 0.1476,0.0738c0.25467,0.07711 0.2952,0.2214 0.4428,0.369c0.1476,0.1476 0.2214,0.2214 0.2214,0.2214c0.1476,0.1476 0.2214,0.2214 0.2952,0.2952c0.0738,0.0738 0.1476,0.1476 0.2214,0.2214c0.0738,0.0738 0.12498,0.18146 0.2214,0.2214c0.06818,0.02824 0.16322,0.0527 0.369,0.2214c0.08071,0.06617 0.12498,0.10766 0.2214,0.1476c0.06818,0.02824 0.11936,0.00562 0.1476,0.0738c0.03994,0.09643 0.29718,0.20445 0.369,0.2214c0.16061,0.03792 0.1476,0.0738 0.1476,0.1476c0,0.0738 -0.02262,0.26134 0.0738,0.2214c0.06818,-0.02824 -0.0738,-0.1476 -0.0738,-0.2214c0,-0.0738 0.0738,-0.1476 0.0738,-0.2952c0,0 0.0738,-0.1476 0.1476,-0.2214c0.0738,-0.0738 0.27258,-0.25526 0.369,-0.2952c0.13637,-0.05648 0.21423,-0.01655 0.369,-0.0738c0.28539,-0.10557 0.40286,-0.12498 0.4428,-0.2214c0.02824,-0.06818 0.0738,-0.1476 0.1476,-0.2214c0.0738,-0.0738 0.18146,-0.12498 0.2214,-0.2214c0.05648,-0.13637 0,-0.1476 0.0738,-0.2214c0.0738,-0.0738 0,-0.0738 0,-0.0738c-0.0738,0.0738 -0.1476,0.1476 -0.2214,0.2214c-0.0738,0.0738 -0.1476,0.2214 -0.2214,0.2952c-0.1476,0.1476 -0.23702,0.2003 -0.4428,0.369c-0.08071,0.06617 -0.2214,0.1476 -0.2952,0.2214c-0.0738,0.0738 -0.1476,0.0738 -0.2214,0.0738c-0.0738,0 -0.25526,-0.02262 -0.2952,0.0738c-0.02824,0.06818 -0.05118,0.10766 -0.1476,0.1476c-0.06818,0.02824 -0.1476,0 -0.1476,0c-0.4428,-0.1476 -0.81181,-0.4428 -0.95941,-0.59041c-0.0738,-0.0738 -0.15523,-0.14069 -0.2214,-0.2214c-0.1687,-0.20578 -0.45653,-0.49392 -0.59041,-0.59041c-0.08467,-0.06103 -0.05206,-0.17315 -0.2214,-0.2952c-0.13387,-0.09649 -0.2952,-0.2214 -0.4428,-0.369c-0.0738,-0.0738 -0.2214,-0.11703 -0.2214,-0.2214c0,-0.10437 0.3979,-0.05183 0.95941,0.2952c0.31389,0.194 0.50943,0.45935 0.66421,0.51661c0.28539,0.10557 0.73801,0.369 0.81181,0.4428c0.0738,0.0738 0.2214,0.0738 0.5166,0.0738c0.1476,0 0.30893,-0.05111 0.44281,-0.1476c0.08467,-0.06103 0.04556,-0.15322 0.0738,-0.2214c0.03994,-0.09643 0.0738,-0.1476 0.0738,-0.2214c0,-0.0738 0.15322,-0.19316 0.2214,-0.2214c0.09643,-0.03994 0.13459,-0.25729 0.2952,-0.2952c0.07183,-0.01696 0.22535,-0.03989 0.369,-0.0738c0.16061,-0.03792 0.21053,-0.16038 0.2952,-0.2214c0.13387,-0.09649 0.40692,-0.06079 0.369,-0.2214c-0.01696,-0.07183 -0.25526,0.05118 -0.2952,0.1476c-0.05648,0.13637 0,0.2952 0,0.51661c0,0 -0.10204,0.06818 -0.0738,0c0.03994,-0.09643 0.1476,-0.1476 0.2952,-0.2952c0.1476,-0.1476 0.28829,-0.30283 0.369,-0.369c0.20578,-0.1687 0.31808,-0.09871 0.51661,-0.2214c0.08878,-0.05487 0.1476,-0.1476 0.1476,-0.2214c0,0 0.04556,-0.07942 0.0738,-0.1476c0.03994,-0.09643 0.21532,-0.24995 0.2952,-0.4428c0.02824,-0.06818 0.03589,-0.13459 0.0738,-0.2952c0.01696,-0.07183 0.02855,-0.21532 0.2214,-0.2952c0.06818,-0.02824 0.11936,-0.07942 0.1476,-0.1476c0.03994,-0.09643 0.21532,-0.10235 0.2952,-0.2952c0.02824,-0.06818 0.0527,-0.23702 0.2214,-0.4428c0.06617,-0.08071 0.04556,-0.15322 0.0738,-0.2214c0.03994,-0.09643 0.05111,-0.16133 0.1476,-0.2952c0.12205,-0.16934 0.2084,-0.25729 0.369,-0.2952c0.07183,-0.01696 0.25526,-0.12498 0.2952,-0.2214c0.02824,-0.06818 -0.02824,-0.22702 0,-0.2952c0.03994,-0.09643 0.0738,-0.1476 0.0738,-0.2214c0,-0.0738 0,-0.1476 0.0738,-0.2214c0.0738,-0.0738 0.1476,-0.1476 0.2214,-0.2214c0.0738,-0.0738 -0.07942,-0.10204 -0.1476,-0.0738c-0.19285,0.07988 -0.13191,0.44336 -0.1476,0.66421c-0.03699,0.52054 -0.08784,0.65546 -0.2214,0.88561c-0.08283,0.14273 -0.12491,0.23513 -0.2214,0.369c-0.12205,0.16934 -0.24403,0.25526 -0.1476,0.2952c0.06818,0.02824 0.10362,0.04343 0.4428,-0.2214c0.32906,-0.25692 0.42011,-0.45653 0.51661,-0.59041c0.06103,-0.08467 0.1476,-0.1476 0.1476,-0.2214c0,-0.1476 0,-0.2214 0,-0.369c0,-0.2214 0,-0.2952 0,-0.369c0,-0.1476 -0.03386,-0.19878 -0.0738,-0.2952c-0.02824,-0.06818 0,-0.1476 0,-0.2214c0,-0.0738 0,-0.1476 0,-0.2952c0,-0.0738 0,-0.1476 0,-0.369c0,-0.0738 0.01393,-0.10445 0.0738,-0.1476c0.18933,-0.13646 0.04556,-0.30082 0.0738,-0.369c0.03994,-0.09643 0.0738,-0.1476 0.1476,-0.2214c0.0738,-0.0738 0.0738,-0.0738 0.0738,-0.0738c-0.1476,0 -0.2214,0.0738 -0.2214,0.1476c0,0.1476 0.02262,0.32906 -0.0738,0.369c-0.06818,0.02824 -0.0949,0.08942 0.0738,0.2952c0.06617,0.08071 0.2952,0.0738 0.369,0.0738c0.0738,0 0.1476,0 0.1476,-0.0738c0,-0.1476 0,-0.369 0,-0.4428c0,-0.0738 0,-0.2214 0,-0.2952c0,-0.0738 -0.01732,-0.15884 -0.0738,-0.2952c-0.03994,-0.09643 -0.05684,-0.07578 -0.0738,-0.1476c-0.03792,-0.16061 -0.14152,-0.17615 -0.2214,-0.369c-0.08473,-0.20455 -0.0738,-0.369 -0.1476,-0.4428c-0.0738,-0.0738 -0.1476,-0.2214 -0.2214,-0.2952c-0.0738,-0.0738 -0.10766,-0.05118 -0.1476,-0.1476c-0.02824,-0.06818 -0.04556,-0.22702 -0.0738,-0.2952c-0.03994,-0.09643 -0.1476,-0.1476 -0.1476,-0.2952c0,0 -0.05118,-0.10766 -0.1476,-0.1476c-0.06818,-0.02824 -0.12498,-0.03386 -0.2214,-0.0738c-0.13637,-0.05648 -0.2214,0 -0.2952,-0.0738c-0.0738,-0.0738 -0.1476,-0.1476 -0.1476,-0.1476c-0.0738,-0.0738 -0.15322,-0.11936 -0.2214,-0.1476c-0.09643,-0.03994 -0.18146,-0.12498 -0.2214,-0.2214c-0.02824,-0.06818 -0.07578,-0.05684 -0.1476,-0.0738c-0.16061,-0.03791 -0.23264,-0.01732 -0.369,-0.0738c-0.09643,-0.03994 -0.0738,-0.0738 -0.2214,-0.0738c0,0 -0.0738,-0.0738 -0.1476,-0.0738c-0.2214,0 -0.369,0 -0.4428,0c-0.1476,0 -0.1476,0 -0.2214,0c0,0 -0.1476,0 -0.2214,0c-0.0738,0 -0.0738,0 -0.2214,0c-0.0738,0 -0.15322,-0.02824 -0.2214,0c-0.19285,0.07988 -0.19316,0.15322 -0.2214,0.2214c-0.03994,0.09642 -0.04556,0.07942 -0.0738,0.1476c-0.03994,0.09643 -0.0738,0.1476 -0.0738,0.1476c-0.0738,0.0738 -0.1476,0.1476 -0.2214,0.2214c0,0 -0.02162,0.09542 -0.0738,0.1476c-0.05219,0.05218 0.05649,0.15884 0,0.2952c-0.03994,0.09643 -0.0738,0.1476 -0.1476,0.1476c-0.0738,0 -0.07942,0.04556 -0.1476,0.0738c-0.09643,0.03994 -0.12491,0.23513 -0.2214,0.369c-0.06103,0.08467 -0.1476,0.1476 -0.2214,0.1476c-0.0738,0 0,0 0.1476,-0.0738c0.1476,-0.0738 0.2952,-0.2214 0.369,-0.369c0,0 0,-0.0738 0,-0.2214c0,-0.0738 0,-0.0738 0,-0.1476c0,-0.0738 -0.1476,-0.2214 -0.1476,-0.2214c-0.2214,-0.0738 -0.2952,-0.0738 -0.2952,-0.0738c0,0 0.2952,0 0.369,0c0,0 0.0738,0 0.0738,-0.0738c0,-0.0738 0.02262,-0.18146 -0.0738,-0.2214c-0.06818,-0.02824 -0.0738,0 -0.1476,0c-0.0738,0 -0.14958,-0.01696 -0.2214,0c-0.16061,0.03791 -0.16038,0.13673 -0.2214,0.2214c-0.19298,0.26775 -0.1476,0.369 -0.1476,0.4428c0,0 -0.03386,0.05118 -0.0738,0.1476c-0.05649,0.13637 0,0.369 0,0.4428c0,0.0738 0,0.2952 0,0.369c0,0.2214 0,0.2952 0,0.2952c0,0.0738 -0.0738,0.1476 -0.1476,0.2952c-0.0738,0.1476 -0.05118,0.18146 -0.1476,0.2214c-0.06818,0.02824 -0.22944,0.0591 -0.4428,0c-0.41471,-0.11487 -0.41456,-0.30082 -0.4428,-0.369c-0.07988,-0.19285 -0.1476,-0.1476 -0.2214,-0.2952c-0.0738,-0.1476 -0.0738,-0.2214 -0.0738,-0.2952c0,-0.0738 -0.05241,-0.29837 -0.0738,-0.369c-0.07711,-0.25467 -0.1476,-0.2952 -0.1476,-0.2952c0,-0.0738 -0.19967,-0.32075 -0.369,-0.4428c-0.26775,-0.19298 -0.2952,-0.2214 -0.2952,-0.2214c-0.0738,-0.369 -0.16322,-0.42171 -0.369,-0.59041c-0.08071,-0.06617 -0.2214,-0.0738 -0.2214,-0.0738c-0.0738,0 -0.0738,0 -0.2214,0c-0.0738,0 -0.1476,0 -0.2214,0c-0.2214,0 -0.2952,0 -0.369,0c-0.0738,0 -0.13459,0.03589 -0.2952,0.0738c-0.21548,0.05087 -0.4428,0.0738 -0.51661,0.0738c-0.0738,0 0.00095,-0.01182 0.0738,0c0.23036,0.03738 0.2952,0.0738 0.5166,0.0738c0.1476,0 0.2214,0 0.51661,0c0.0738,0 0.2214,0 0.2952,0c0.1476,0 0.369,0 0.5166,0c0.2214,0 0.2952,0.0738 0.369,0.0738c0.0738,0 0.1476,0 0.2214,0c0.0738,0 0.0738,0 0.0738,0.2214c0,0.2952 0.2488,0.85551 0.73801,1.32841c0.33976,0.32844 0.4428,0.369 0.4428,0.4428c0,0 -0.07049,0.04053 -0.1476,0.2952c-0.04277,0.14127 -0.00592,0.41987 -0.2214,0.369c-0.32122,-0.07583 -0.68709,-0.32011 -0.88561,-0.4428c-0.26635,-0.16461 -0.4463,-0.43822 -0.73801,-0.66421c-0.37357,-0.2894 -0.66982,-0.41456 -0.73801,-0.4428c-0.09643,-0.03994 -0.0738,-0.0738 -0.1476,-0.1476c-0.0738,-0.0738 -0.1476,-0.0738 -0.2952,-0.0738c-0.0738,0 -0.19497,-0.01529 -0.2214,0.1476c-0.01672,0.10302 0.0738,0.0738 0.369,0.0738c0.2952,0 0.37493,0.05087 0.59041,0c0.16061,-0.03791 0.2214,-0.1476 0.369,-0.1476c0.2214,0 0.87468,0.20455 0.95941,0c0.03994,-0.09643 -0.05832,-0.14688 -0.59041,-0.2214c-0.36544,-0.05118 -0.71538,-0.10766 -0.81181,-0.1476c-0.06818,-0.02824 -0.2214,-0.0738 -0.2214,0c0,0.0738 0.29711,-0.02364 0.4428,0c0.23036,0.03738 0.40286,0.05118 0.4428,0.1476c0.02824,0.06818 0.14003,0.17032 0,0.59041c-0.11669,0.35007 -0.66421,0.51661 -1.32841,0.51661c-0.59041,0 -0.95941,-0.0738 -0.95941,0c0,0.0738 0.23127,-0.08478 0.59041,0c0.32122,0.07583 0.59231,0.24505 0.73801,0.2214c0.23036,-0.03738 0.40894,-0.09643 0.369,0c-0.02824,0.06818 -0.59041,0 -1.25461,0c-0.4428,0 -0.7394,0.01218 -0.1476,0.0738c0.8839,0.09203 1.92454,0.29807 2.36162,0.369c0.23037,0.03738 0.2952,0.0738 0.369,0.0738c0,0 0.1476,0 0.0738,0c-0.51661,0 -2.67696,0.22385 -3.91144,0c-0.62044,-0.11251 -0.51003,-0.25113 0.2214,-0.0738c1.0443,0.25318 2.2857,0.55348 3.24723,0.59041c0.66372,0.02549 1.03321,0.2214 0.81181,0.2214c-1.10701,0 -2.50188,-0.07364 -3.61624,-0.1476c-0.14728,-0.00978 -0.07222,-0.03415 0.2952,0c1.19623,0.11118 2.38924,0.1452 3.98524,0.51661c0.68191,0.15869 0.92441,0.23242 0.88561,0.2952c-0.08676,0.14038 -1.10701,0.0738 -2.50923,0.0738c-1.25461,0 -1.94043,-0.05219 -1.99262,0c-0.05218,0.05219 0.07566,0.13884 0.4428,0.2214c0.59375,0.13351 1.26164,0.30921 2.14022,0.4428c0.67268,0.10229 1.03321,0.1476 0.88561,0.1476c-0.2214,0 -0.88712,0.03652 -1.32841,0c-0.44738,-0.03703 -0.88561,-0.2214 -0.88561,-0.0738c0,0.4428 1.65258,0.20871 2.80443,0.51661c0.50415,0.13476 0.61303,0.18146 0.51661,0.2214c-0.06818,0.02824 -0.29269,0.11066 -1.10701,0.1476c-0.73725,0.03344 -1.55621,-0.34092 -1.69742,0c-0.15976,0.3857 0.88368,0.45386 1.69742,0.59041c0.95731,0.16064 1.40221,0.2214 1.32841,0.2214c-0.51661,0 -0.96513,0.07093 -1.40221,0c-0.46073,-0.07477 -0.81971,-0.07978 -1.10701,-0.1476c-0.16061,-0.03791 0.01306,-0.12213 0.369,0c0.46827,0.16067 0.95941,0.369 1.25461,0.4428c0.2952,0.0738 0.25467,0.21809 0,0.2952c-0.4238,0.12832 -1.91882,0 -2.73063,0c-0.369,0 -0.49929,0.01124 -0.4428,0.1476c0.15976,0.3857 0.67535,0.40108 0.81181,0.59041c0.04315,0.05987 0,0.2214 0.0738,0.2952c0.0738,0.0738 0.17048,0.02491 0.369,0.1476c0.08878,0.05487 0.2214,0.2214 0.2952,0.2952c0,0 -0.08701,0.24345 0.1476,0.369c0.06507,0.03482 0.1476,0.0738 0.369,0.2952c0.1476,0.1476 0.72396,0.21266 0.59041,0.4428c-0.08283,0.14273 -0.40889,-0.30765 -1.25461,-0.59041c-0.6453,-0.21574 -0.82458,-0.13673 -0.88561,-0.2214c-0.09649,-0.13387 -0.0738,-0.2214 -0.0738,-0.4428c0,-0.0738 0.0738,-0.1476 0.1476,-0.1476c0.2952,0 0.59629,0.13638 0.88561,0.2952c0.37723,0.20708 0.59041,0.369 0.66421,0.4428c0.2214,0.2214 0.2741,0.31083 0.4428,0.51661c0.13234,0.16143 0.24034,0.32612 0.59041,0.4428c0.07001,0.02334 0.07025,-0.14306 -0.59041,-0.66421c-0.37102,-0.29267 -0.53065,-0.43406 -0.66421,-0.66421c-0.08283,-0.14273 -0.1476,-0.2952 -0.369,-0.51661c-0.0738,-0.0738 -0.1476,-0.1476 -0.1476,-0.2214c0,-0.0738 -0.05219,-0.24302 0,-0.2952c0.05219,-0.05219 0.5729,0.11712 1.62362,0.51661c0.65443,0.24881 1.07374,0.36569 1.32841,0.4428c0.14127,0.04277 0.55378,-0.22821 0.51661,0.0738c-0.02705,0.21974 -0.49228,-0.10952 -1.25461,-0.2214c-0.36509,-0.05358 -0.55161,-0.06278 -0.59041,0c-0.08676,0.14038 -0.00531,0.2665 0.1476,0.4428c0.10812,0.12467 0.2952,0.2214 0.4428,0.369c0.0738,0.0738 0.04119,0.18593 0.2952,0.369c0.26775,0.19298 0.42609,0.17682 0.4428,0.0738c0.05287,-0.32578 -0.50786,-0.53065 -0.73801,-0.66421c-0.14273,-0.08283 -0.20923,-0.1481 -0.2214,-0.2952c-0.03703,-0.44738 -0.14187,-0.90579 -0.369,-0.95941c-0.10158,-0.02398 -0.17631,0.12221 -0.369,0.369c-0.26483,0.33919 -0.2952,0.4428 -0.369,0.51661c-0.0738,0.0738 0.07942,0.17584 0.1476,0.1476c0.19285,-0.07988 0.5166,-0.369 0.66421,-0.4428c0.2952,-0.1476 0.59619,-0.35349 0.81181,-0.4428c0.45739,-0.18946 0.86906,-0.21423 0.81181,-0.369c-0.10557,-0.28539 -0.68601,0.38348 -0.88561,0.81181c-0.15895,0.3411 -0.2952,0.78124 -0.2952,0.88561c0,0.10437 0.29718,0.09076 0.369,0.0738c0.32122,-0.07583 0.71435,-0.48495 0.88561,-0.81181c0.21663,-0.41344 0.34027,-0.74976 0.4428,-0.95941c0.11691,-0.23904 0.24403,-0.40286 0.1476,-0.4428c-0.06818,-0.02824 -0.26191,0.20768 -0.369,0.59041c-0.12096,0.43231 -0.0738,0.81181 -0.0738,1.03321c0,0.1476 0.10362,0.26483 0.4428,0c0.24679,-0.19269 0.37188,-0.52232 0.4428,-0.95941c0.03738,-0.23037 0.05684,-0.44478 0.0738,-0.51661c0.03792,-0.16061 0.2495,-0.33374 0.4428,-0.51661c0.26806,-0.25358 0.38137,-0.55715 0.2214,-0.51661c-0.87324,0.22131 -0.92223,1.39541 -0.95941,1.69742c-0.03607,0.29299 -0.03057,0.4428 0.0738,0.4428c0.31311,0 0.53286,-0.50147 0.73801,-0.73801c0.24177,-0.27877 0.45345,-0.51175 0.51661,-0.66421c0.08931,-0.21561 0.2003,-0.38463 0.369,-0.59041c0.06617,-0.08071 0.21532,-0.10235 0.2952,-0.2952c0.02824,-0.06818 0.1265,-0.31082 0.2952,-0.51661c0.06617,-0.08071 0.12396,-0.22331 0.1476,-0.369c0.03738,-0.23036 0.0738,-0.2952 0.0738,-0.369c0,-0.2214 0.1476,-0.4428 0.1476,-0.59041c0,-0.0738 -0.03391,-0.22535 0,-0.369c0.03792,-0.16061 0.1476,-0.369 0.1476,-0.4428c0,-0.1476 0.14429,-0.26193 0.2214,-0.51661c0.04277,-0.14127 0.10969,-0.20839 0.1476,-0.369c0.03391,-0.14365 0,-0.2214 0,-0.2214c0,-0.0738 0.06658,-0.28225 -0.0738,-0.369c-0.06278,-0.0388 -0.18146,0.05118 -0.2214,0.1476c-0.16945,0.4091 0,1.03321 0,1.54982c0,0.369 0,0.4428 0,0.59041c0,0.0738 0,0.1476 0,0.2952c0,0.0738 0,0.1476 0,0.1476c0,0.1476 0.0738,0.2214 0.1476,0.2214c0.1476,0 0.4428,-0.4428 0.4428,-0.95941c0,-0.369 0,-0.5166 0,-0.66421c0,-0.2214 0.0738,-0.369 0.0738,-0.4428c0,-0.1476 0,-0.2214 0,-0.369c0,-0.1476 0,-0.2214 0,-0.369c0,-0.2214 -0.1476,-0.369 -0.2214,-0.51661c-0.0738,-0.1476 -0.13459,-0.25729 -0.2952,-0.2952c-0.07183,-0.01696 -0.22331,-0.05016 -0.369,-0.0738c-0.23036,-0.03738 -0.37462,-0.04556 -0.4428,-0.0738c-0.09643,-0.03994 -0.15155,-0.03989 -0.2952,-0.0738c-0.16061,-0.03791 -0.22702,-0.04556 -0.2952,-0.0738c-0.19285,-0.07988 -0.22338,-0.20445 -0.2952,-0.2214c-0.16061,-0.03791 -0.2084,-0.10969 -0.369,-0.1476c-0.07183,-0.01696 -0.1476,0 -0.2214,0c-0.1476,0 -0.2952,-0.1476 -0.369,-0.1476c-0.2214,0 -0.369,0 -0.59041,0c-0.369,0 -0.73315,0.01065 -0.88561,0.0738c-0.21561,0.08931 -0.27251,0.16133 -0.369,0.2952c-0.06103,0.08467 -0.19871,0.23513 -0.2952,0.369c-0.06103,0.08467 -0.28338,0.44376 -0.2952,0.51661c-0.03738,0.23036 -0.09673,0.37493 -0.1476,0.59041c-0.03792,0.16061 -0.0738,0.2952 -0.0738,0.66421c0,0.369 0.03642,0.58144 0.0738,0.81181c0.04729,0.29139 -0.04538,0.54406 0.1476,0.81181c0.06103,0.08467 0.11936,0.15322 0.1476,0.2214c0.03994,0.09643 0.05872,0.22813 0.2952,0.73801c0.06943,0.14971 0.24414,0.43614 0.5166,0.59041c0.26479,0.14992 0.83716,0.27772 1.25461,0.4428c0.24745,0.09785 0.47666,0.17023 0.51661,0.0738c0.02824,-0.06818 0.05475,-0.31935 0.5166,-0.66421c0.21321,-0.1592 0.31206,-0.06287 0.51661,-0.1476c0.09643,-0.03994 0.0738,-0.2214 0.2214,-0.369c0.1476,-0.1476 0.2214,-0.369 0.2214,-0.51661c0,-0.0738 -0.0738,-0.1476 -0.369,-0.1476c-0.369,0 -0.80788,0.11061 -1.32841,0.1476c-0.22085,0.0157 -0.39188,0.02491 -0.59041,0.1476c-0.17756,0.10974 -0.4428,0.1476 -0.73801,0.1476c-0.369,0 -0.49398,-0.03386 -0.59041,-0.0738c-0.06818,-0.02824 -0.18069,-0.28086 -0.2952,-0.59041c-0.10557,-0.28539 -0.0738,-0.5166 -0.0738,-0.66421c0,-0.0738 0.0738,-0.2214 0.0738,-0.369c0,-0.0738 0,-0.1476 0,-0.2214c0,-0.2214 0.09273,-0.31018 0.1476,-0.2214c0.12269,0.19852 0.62563,0.92084 1.03321,1.32841c0.40758,0.40758 0.5774,0.55249 0.73801,0.59041c0.28731,0.06782 0.7734,0.01755 1.25461,-0.2214c0.3305,-0.16412 0.369,-0.2214 0.59041,-0.369c0.2214,-0.1476 0.4428,-0.369 0.4428,-0.4428c0,-0.1476 -0.1476,-0.2214 -0.1476,-0.2214c-0.1476,0 -0.29616,-0.01182 -0.369,0c-0.23036,0.03738 -0.4428,0.1476 -0.66421,0.1476c-0.2214,0 -0.4428,0 -0.59041,0c-0.369,0 -0.66421,0 -1.32841,0c-0.2952,0 -0.44376,-0.13578 -0.51661,-0.1476c-0.23036,-0.03738 -0.369,-0.2214 -0.369,-0.369c0,-0.1476 0,-0.2214 0,-0.2214c0,-0.0738 0.03069,-0.20377 0.1476,-0.4428c0.10254,-0.20965 0.18146,-0.27258 0.2214,-0.369c0.05649,-0.13637 0.10766,-0.19878 0.1476,-0.2952c0.02824,-0.06818 0.02855,-0.21532 0.2214,-0.2952c0.06818,-0.02824 0.13673,-0.08658 0.2214,-0.1476c0.13387,-0.09649 0.2214,-0.0738 0.2952,-0.0738c0.0738,0 0.2952,-0.1476 0.4428,-0.1476c0.1476,0 0.2214,0 0.51661,0c0.0738,0 0.1476,0 0.2214,0c0.0738,0 0.1476,0 0.2214,0c0.0738,0 0.21813,0.07722 0.2952,0.1476c0.42563,0.38869 0.94699,0.62894 1.18081,1.10701c0.10254,0.20965 0.0738,0.369 0.0738,0.66421c0,0.1476 0.02873,0.30696 -0.0738,0.51661c-0.11691,0.23903 -0.2214,0.2952 -0.369,0.369c-0.1476,0.0738 -0.43451,0.24022 -1.25461,0.59041c-0.3655,0.15607 -0.63424,0.25926 -0.81181,0.369c-0.19852,0.12269 -0.369,0.2214 -0.59041,0.4428c-0.1476,0.1476 -0.43271,0.37984 -0.59041,0.5166c-0.27877,0.24177 -0.49391,0.38273 -0.59041,0.5166c-0.12205,0.16934 -0.45843,0.42171 -0.66421,0.59041c-0.08071,0.06617 -0.23227,0.20863 -0.1476,0.1476c0.26775,-0.19298 1.28915,-0.33258 1.91882,-0.59041c0.64431,-0.26382 1.24128,-0.63588 1.54982,-1.18081c0.14992,-0.26479 0.05684,-0.51858 0.0738,-0.59041c0.03791,-0.16061 0.2214,-0.19083 0.2214,-0.2952c0,-0.10437 -0.36498,-0.06557 -0.81181,0.1476c-0.80484,0.38397 -1.26906,0.63829 -1.54982,0.81181c-0.31389,0.194 -0.51354,0.40585 -1.18081,0.4428c-0.5895,0.03265 -1.4672,-0.21829 -1.62362,-0.66421c-0.09771,-0.27856 0.15297,-0.58169 0.51661,-0.81181c0.22485,-0.14229 0.55736,-0.53559 0.73801,-0.81181c0.31549,-0.48239 0.71199,-0.80978 1.03321,-0.88561c0.07183,-0.01696 -0.09041,-0.02396 -0.73801,0.4428c-0.68263,0.49201 -1.14378,1.02863 -1.18081,1.47601c-0.02435,0.2942 0.14416,0.47963 0.73801,0.5166c0.36829,0.02293 0.6811,0.01995 1.03321,-0.2952c0.46661,-0.41764 0.81462,-0.64367 1.10701,-0.95941c0.22425,-0.24216 0.1864,-0.38003 0.1476,-0.4428c-0.08676,-0.14038 -0.43639,0.01146 -0.73801,0.88561c-0.14642,0.42436 -0.2214,0.81181 -0.2214,0.88561c0,0 0.06163,-0.15596 0.369,-0.59041c0.21313,-0.30123 0.52198,-0.43409 0.88561,-0.66421c0.22485,-0.14229 0.38083,-0.29425 0.369,-0.2214c-0.11215,0.69109 -0.369,1.10701 -0.369,1.69742c0,0.2952 0.00197,0.45976 0.0738,0.4428c0.16061,-0.03791 0.20745,-0.22273 0.2214,-0.2952c0.07516,-0.39026 0.33201,-0.80788 0.369,-1.32841c0.02093,-0.29446 0.03546,-0.59326 0,-0.81181c-0.14953,-0.92146 -0.43979,-1.28675 -0.59041,-1.62362c-0.1536,-0.34354 -0.0738,-0.66421 -0.0738,-0.81181c0,-0.0738 -0.00075,-0.16586 -0.2214,-0.1476c-0.44738,0.03703 -0.91543,0.25178 -1.25461,0.51661c-0.32906,0.25692 -0.51458,0.56439 -0.59041,0.88561c-0.06782,0.28731 -0.1164,0.47587 0,0.66421c0.08676,0.14038 0.51661,0.1476 1.18081,0.1476c0.73801,0 1.12906,-0.1344 1.25461,-0.369c0.03482,-0.06507 0.04556,-0.15322 0.0738,-0.2214c0.03994,-0.09643 0.21872,-0.3149 0.1476,-0.2952c-0.41471,0.11487 -1.14206,0.43706 -1.54982,0.66421c-0.50354,0.2805 -1.03321,0.73801 -1.10701,0.66421c-0.1476,-0.1476 0.53304,-0.49624 0.81181,-0.73801c0.15769,-0.13677 0.2787,-0.32538 0.66421,-0.51661c0.35604,-0.1766 0.74363,-0.34076 0.81181,-0.369c0.09643,-0.03994 0.0738,0 0.0738,0.0738c0,0.369 0,1.03321 0,1.69742c0,0.51661 -0.03057,0.81181 0.0738,0.81181c0.31311,0 0.28,-0.59686 0.4428,-0.95941c0.0676,-0.15054 0.1476,-0.4428 0.2214,-0.73801c0.0738,-0.2952 0.01732,-0.38024 0.0738,-0.51661c0.11982,-0.28928 0.2214,-0.2214 0.2214,-0.2952c0,-0.2214 0.00903,-0.52148 -0.0738,-0.66421c-0.13356,-0.23015 -0.29806,-0.33354 -0.51661,-0.369c-0.23036,-0.03738 -0.369,-0.0738 -0.51661,-0.0738c-0.1476,0 -0.369,0 -0.4428,0c-0.0738,0 -0.1476,0.0738 -0.1476,0.0738c0.2214,0.1476 0.51661,0.2214 0.59041,0.2214c0.0738,0 0.27822,0.04049 0.59041,0.1476c0.35594,0.12213 0.73801,0.0738 0.81181,0.0738c0.0738,0 0.2952,0 0.369,0c0,0 0.0738,0 0.2214,0c0.1476,0 0.369,0 0.4428,0c0.0738,0 0.24538,-0.02778 0.2214,0.0738c-0.05362,0.22714 -0.49295,0.11595 -0.66421,0.4428c-0.10831,0.20672 -0.0738,0.66421 -0.0738,1.18081c0,0.0738 0.05648,0.23264 0,0.369c-0.03994,0.09643 0.01087,0.06103 -0.0738,0c-0.26775,-0.19298 -0.90849,-0.32011 -1.10701,-0.4428c-0.08878,-0.05487 -0.09643,-0.18146 0,-0.2214c0.06818,-0.02824 0.14855,-0.06198 0.2214,-0.0738c0.23036,-0.03738 0.51661,-0.1476 0.66421,-0.1476c0.1476,0 0.369,-0.0738 0.4428,-0.1476c0.0738,-0.0738 0.1476,-0.0738 0.1476,-0.0738c0.0738,0 0.14855,0.01182 0.2214,0c0.23036,-0.03738 0.60155,-0.17968 0.73801,-0.369c0.0863,-0.11974 0.0738,-0.2214 0.0738,-0.2214c0.0738,-0.0738 0.10766,-0.12498 0.1476,-0.2214c0.05649,-0.13637 0.04556,-0.30082 0.0738,-0.369c0.03994,-0.09643 0.0738,-0.1476 0.1476,-0.1476c0.0738,0 0.01498,0.01893 -0.0738,0.0738c-0.39705,0.24539 -0.85986,0.47475 -1.40221,0.88561c-0.42421,0.32136 -0.73801,0.81181 -0.95941,1.18081c-0.2214,0.369 -0.50559,0.75351 -0.81181,0.95941c-0.35711,0.24012 -0.73603,0.45976 -0.66421,0.4428c0.16061,-0.03791 0.59041,-0.369 0.81181,-0.66421c0.2214,-0.2952 0.24302,-0.46442 0.2952,-0.5166c0.05218,-0.05218 0.2214,-0.0738 0.51661,-0.2214c0.1476,-0.0738 0.4428,-0.2214 0.5166,-0.2952c0.0738,-0.0738 0.17322,-0.0951 0.51661,-0.2952c0.40829,-0.23792 0.68064,-0.42244 0.95941,-0.66421c0.07885,-0.06838 0.16133,-0.05111 0.2952,-0.1476c0.16934,-0.12205 0.21654,-0.15825 0.369,-0.2214c0.21561,-0.08931 0.59041,-0.369 0.66421,-0.4428c0.0738,-0.0738 0.04525,-0.14152 -0.1476,-0.2214c-0.13637,-0.05648 -0.23264,0.05649 -0.369,0c-0.09643,-0.03994 -0.1476,-0.0738 -0.1476,-0.0738c-0.0738,0 -0.0738,0 -0.2214,0l-0.0738,0l-0.0738,0l-0.369,0" id="svg_4" stroke="#ff7f00" fill="none"/>
  <path d="m4.30996,2.50184c0,-0.2214 0,-0.2952 0,-0.369c0,-0.0738 0.05219,-0.24302 0,-0.2952c-0.05219,-0.05218 -0.12498,0.03386 -0.2214,0.0738c-0.06818,0.02824 -0.369,0 -0.51661,0l-0.0738,0l-0.1476,-0.0738" id="svg_5" stroke="#ff7f00" fill="none"/>
  <path d="m6.52399,2.64945c0.2214,0.2952 0.25778,0.38627 0.4428,0.73801c0.12388,0.2355 0.2214,0.2952 0.2214,0.369c0,0.0738 0,0.2214 0,0.2952c0,0 0.0738,0.1476 0.0738,0.1476c0.2214,0.0738 0.2952,0.1476 0.51661,0.369c0.1476,0.1476 0.2952,0.2952 0.369,0.369l0.0738,0.0738l0,0" id="svg_6" stroke="#ff7f00" fill="none"/>
  <path d="m3.42436,0.95203c-0.1476,0.1476 -0.2952,0.369 -0.2952,0.51661l-0.0738,0.2214l0,0.0738l-0.0738,0.0738" id="svg_7" stroke="#ff7f00" fill="none"/>
  <path d="m8.2952,14.01476c0,0 0,-0.1476 0,-0.2214c0,-0.0738 0,-0.1476 0,-0.1476c0,-0.0738 0.0738,-0.1476 0.0738,-0.2214l0.0738,-0.0738l0.0738,0" id="svg_8" stroke="#ff7f00" fill="none"/>
  <path d="m13.90406,6.41328c0.0738,0 0.1476,0 0.2214,0c0,0 0.0738,-0.0738 0.2214,-0.0738c0.0738,0 0.0738,-0.0738 0.2952,-0.2214l0.0738,0l0.0738,-0.0738" id="svg_9" stroke="#ff7f00" fill="none"/>
 </g>

</svg>